<?xml version="1.0" encoding="UTF-8" standalone="no"?>
<!DOCTYPE svg PUBLIC "-//W3C//DTD SVG 1.1//EN" "http://www.w3.org/Graphics/SVG/1.1/DTD/svg11.dtd">
<svg width="100%" height="100%" viewBox="0 0 1200 630" version="1.1" xmlns="http://www.w3.org/2000/svg" xmlns:xlink="http://www.w3.org/1999/xlink" xml:space="preserve" xmlns:serif="http://www.serif.com/" style="fill-rule:evenodd;clip-rule:evenodd;stroke-linejoin:round;stroke-miterlimit:2;">
    <rect x="0" y="0" width="1200" height="630" style="fill:rgb(67,92,114);"/>
    <g transform="matrix(0.0305441,-0.680675,-0.688892,-0.0301798,277.268,459.644)">
        <path d="M-29.964,106.155L53.907,106.155L110.768,35.777L101.317,30.894L-29.964,106.155Z" style="fill:rgb(207,211,216);fill-rule:nonzero;"/>
    </g>
    <g transform="matrix(-0.684921,-0.0789706,-0.0799239,0.676752,230.932,390.44)">
        <path d="M-23.539,131.652L26.122,131.652L-37.649,-3.918L-42.028,1.555L-23.539,131.652Z" style="fill:rgb(129,135,135);fill-rule:nonzero;"/>
    </g>
    <g transform="matrix(0.689569,0,0,0.681344,232.434,436.84)">
        <path d="M0,64.651L-84.72,50.537L-119.647,-7.432L-176.872,-23.037L-133.024,-1.488L-98.841,58.702L12.633,87.688L0,64.651Z" style="fill:rgb(42,42,42);fill-rule:nonzero;"/>
    </g>
    <g transform="matrix(0.689569,0,0,0.681344,243.71,421.144)">
        <path d="M0,122.619L-126.34,93.638L-156.809,25.262L-193.224,0L-143.339,19.411L-110.733,79.511L-11.147,98.095L0,122.619Z" style="fill:rgb(83,83,85);fill-rule:nonzero;"/>
    </g>
    <g transform="matrix(-0.22655,-0.643523,-0.651291,0.223848,187.219,289.298)">
        <path d="M-13.985,67.533L35.982,67.533L62.211,50.765L-3.71,10.552L-13.985,67.533Z" style="fill:rgb(166,170,173);fill-rule:nonzero;"/>
    </g>
    <g transform="matrix(0.689569,0,0,0.681344,161.201,269.363)">
        <path d="M0,35.672L-37.875,17.461L-35.114,0L0,35.672Z" style="fill:rgb(90,90,92);fill-rule:nonzero;"/>
    </g>
    <g transform="matrix(-0.212126,0.648305,0.656131,0.209596,305.267,487.894)">
        <path d="M-122.675,-106.928L23.179,-106.928L51.705,-81.01L64.005,-46.574L-122.675,-106.928Z" style="fill:rgb(166,170,173);fill-rule:nonzero;"/>
    </g>
    <g transform="matrix(-0.688268,-0.0418279,-0.0423328,0.680059,222.262,380.216)">
        <path d="M25.114,53.534L73.51,53.534L-1.319,-0.954L-46.705,-1.511L25.114,53.534Z" style="fill:rgb(90,90,92);fill-rule:nonzero;"/>
    </g>
    <g transform="matrix(0.689569,0,0,0.681344,127.893,372.536)">
        <path d="M0,1.479L60.196,60.193L146.401,21.083L121.876,-30.474L47.563,-58.714L0,1.479Z" style="fill:rgb(129,135,135);fill-rule:nonzero;"/>
    </g>
    <g transform="matrix(-0.403579,0.552463,0.559132,0.398765,195.655,354.502)">
        <path d="M8.115,-63.324L80.174,-63.324L7.707,38.347L-10.712,6.722L8.115,-63.324Z" style="fill:rgb(166,170,173);fill-rule:nonzero;"/>
    </g>
    <g transform="matrix(-0.521688,0.445561,0.45094,0.515465,219.827,441.495)">
        <path d="M-96.616,-25.72L5.668,-25.72L-2.091,-49.465L-93.76,-35.06L-96.616,-25.72Z" style="fill:rgb(129,135,135);fill-rule:nonzero;"/>
    </g>
    <g transform="matrix(-0.689569,0,0,0.681344,190.412,348.23)">
        <path d="M-94.383,60.193L-47.564,60.193L0,0L-89.924,33.44L-94.383,60.193Z" style="fill:rgb(25,26,26);fill-rule:nonzero;"/>
    </g>
    <g transform="matrix(0.689569,0,0,0.681344,210.782,379.748)">
        <path d="M0,-31.957L25.269,0L59.452,0L0,-31.957Z" style="fill:rgb(166,170,173);fill-rule:nonzero;"/>
    </g>
    <g transform="matrix(0.318145,-0.604494,-0.611791,-0.314351,235.936,400.206)">
        <path d="M5.762,23.797L21.467,23.797L35.855,-3.062L26.834,-15.919L5.762,23.797Z" style="fill:rgb(25,26,26);fill-rule:nonzero;"/>
    </g>
    <g transform="matrix(0.689569,0,0,0.681344,165.622,258.796)">
        <path d="M0,62.607L9.197,-18.858L53.046,81.465L0,62.607Z" style="fill:rgb(90,90,92);fill-rule:nonzero;"/>
    </g>
    <g transform="matrix(-0.628654,-0.279991,-0.283371,0.621156,165.264,294.671)">
        <path d="M-168.36,64.132L-11.036,64.132L13.786,36.192L-128.08,23.598L-168.36,64.132Z" style="fill:rgb(42,42,42);fill-rule:nonzero;"/>
    </g>
    <g transform="matrix(-0.638424,-0.257504,-0.260613,0.63081,167.652,285.883)">
        <path d="M-122.747,48.924L13.408,48.924L-4.59,18.296L-122.835,14.977L-122.747,48.924Z" style="fill:rgb(64,64,64);fill-rule:nonzero;"/>
    </g>
    <g transform="matrix(-0.314652,0.606276,0.613595,0.310899,282.713,379.448)">
        <path d="M-40.394,-86.791L-7.823,-86.791L46.249,-11.457L-44.345,-57.913L-40.394,-86.791Z" style="fill:rgb(94,94,94);fill-rule:nonzero;"/>
    </g>
    <g transform="matrix(0.689569,0,0,0.681344,149.416,265.945)">
        <path d="M0,-231.489L35.671,-174.268L40.13,-57.22L95.498,0L128.564,-11.516L80.26,-84.345L59.451,-179.842L0,-231.489Z" style="fill:rgb(207,211,216);fill-rule:nonzero;"/>
    </g>
    <g transform="matrix(0.689569,0,0,0.681344,251.907,129.487)">
        <path d="M0,159.034L-54.992,117.419L-77.287,20.805L-148.629,-31.211L-96.612,22.296L-77.287,132.281L-20.81,190.245L0,159.034Z" style="fill:rgb(235,240,240);fill-rule:nonzero;"/>
    </g>
    <g transform="matrix(-0.581578,0.366083,0.370502,0.574641,251.286,322.743)">
        <path d="M-62.21,-106.352L-2.733,-106.352L-11.309,8.82L-40.359,-36.781L-62.21,-106.352Z" style="fill:rgb(90,90,92);fill-rule:nonzero;"/>
    </g>
    <g transform="matrix(0.689569,0,0,0.681344,261.131,292.339)">
        <path d="M0,-109.71L-23.035,-76.268L0,0L0,-109.71Z" style="fill:rgb(129,135,135);fill-rule:nonzero;"/>
    </g>
    <g transform="matrix(0.689569,0,0,0.681344,261.131,246.137)">
        <path d="M0,96.792L-103.67,-27.034L-155.318,-38.926L-87.689,103.016L-2.229,135.718L0,96.792Z" style="fill:rgb(59,59,59);fill-rule:nonzero;"/>
    </g>
    <g transform="matrix(0.689569,0,0,0.681344,189.643,220.248)">
        <path d="M0,10.963L-105.156,-16.534L-38.089,27.497L0,10.963Z" style="fill:rgb(83,83,85);fill-rule:nonzero;"/>
    </g>
    <g transform="matrix(0.689569,0,0,0.681344,261.131,312.086)">
        <path d="M0,52.114L-87.689,6.223L0,0L0,52.114Z" style="fill:rgb(42,42,42);fill-rule:nonzero;"/>
    </g>
    <g transform="matrix(-0.689569,0,0,0.681344,1441.23,56.4439)">
        <rect x="510.021" y="236.514" width="1177.48" height="446.452" style="fill:rgb(17,17,17);"/>
    </g>
    <g transform="matrix(-0.656212,-0.209346,-0.211873,0.648385,103.533,251.639)">
        <path d="M-78.06,-65.286L60.636,-65.286L-93.738,3.569L-148.974,12.289L-78.06,-65.286Z" style="fill:rgb(129,135,135);fill-rule:nonzero;"/>
    </g>
    <g transform="matrix(1,0,0,1,-77.6221,278.449)">
        <text x="379.513px" y="175.946px" style="font-family:'BebasNeue-Regular', 'Bebas Neue', sans-serif;font-size:96px;fill:white;">Q<tspan x="417.721px " y="175.946px ">A</tspan> ANAL<tspan x="614.137px 650.425px " y="175.946px 175.946px ">YS</tspan>T</text>
    </g>
    <g transform="matrix(1,0,0,1,-77.6221,157.449)">
        <text x="379.513px" y="209.546px" style="font-family:'BebasNeue-Regular', 'Bebas Neue', sans-serif;font-size:144px;fill:white;">IL<tspan x="450.073px " y="209.546px ">V</tspan>ERZON ZARA<tspan x="1028.66px " y="209.546px ">T</tspan>E</text>
    </g>
</svg>
